<?xml version="1.0" encoding="UTF-8"?>
<svg id="_レイヤー_1" data-name="レイヤー 1" xmlns="http://www.w3.org/2000/svg" viewBox="0 0 989.46 721.14">
  <defs>
    <style>
      .cls-1 {
        fill: none;
        stroke: #231815;
        stroke-linecap: round;
        stroke-linejoin: round;
        stroke-width: 30px;
      }
    </style>
  </defs>
  <g>
    <path class="cls-1" d="M492.28,438.07c-3.7-9.12-2.98-19.85,2.88-28.66,9.42-14.16,28.54-18.01,42.7-8.59,14.16,9.42,18.01,28.54,8.59,42.7-5.86,8.81-15.48,13.62-25.32,13.74l-95.05,142.9,287.36-90.87,68.69-245.53-212.29-141.2-199.89,158.27,27.28,300.15,95.05-142.9Z"/>
    <rect class="cls-1" x="599.88" y="72.12" width="238.67" height="92.39" transform="translate(177.71 -369.58) rotate(32.68)"/>
  </g>
  <line class="cls-1" x1="100.45" y1="666.49" x2="897.71" y2="667.76"/>
  <rect class="cls-1" x="15" y="628.79" width="76.75" height="76.75"/>
  <rect class="cls-1" x="91.75" y="239.88" width="76.75" height="76.75"/>
  <rect class="cls-1" x="897.71" y="629.39" width="76.75" height="76.75"/>
  <path class="cls-1" d="M130.12,317.2s27.63,349.71,387.53,349.71"/>
</svg>