<?xml version="1.0" encoding="UTF-8"?>
<svg id="_レイヤー_1" data-name="レイヤー 1" xmlns="http://www.w3.org/2000/svg" viewBox="0 0 1094.81 689.01">
  <defs>
    <style>
      .cls-1 {
        stroke-width: 20px;
      }

      .cls-1, .cls-2 {
        fill: none;
        stroke: #231815;
        stroke-linecap: round;
        stroke-linejoin: round;
      }

      .cls-2 {
        stroke-width: 30px;
      }
    </style>
  </defs>
  <path class="cls-2" d="M947.79,165.38l-153.34,265.59,68.15,39.34,85.19-147.55v231.54c0,66.12-53.6,119.71-119.72,119.71H134.71c-66.11,0-119.71-53.59-119.71-119.71V134.71c0-66.12,53.6-119.71,119.71-119.71h693.36c66.12,0,119.72,53.59,119.72,119.71v30.67Z"/>
  <line class="cls-2" x1="178.11" y1="15" x2="178.11" y2="664.18"/>
  <circle class="cls-1" cx="99.43" cy="192.12" r="23.47"/>
  <circle class="cls-1" cx="101.06" cy="344.87" r="23.47"/>
  <circle class="cls-1" cx="99.43" cy="497.63" r="23.47"/>
  <path class="cls-2" d="M312.83,201.33s245.86-62.53,91.85,116.78c0,0-255.75,250.38,33.91,120.08,289.67-130.3,159.67,82.92,159.67,82.92,0,0,105.98-166.12,134.24-43.82"/>
  <polygon class="cls-2" points="1079.81 94.09 947.79 322.76 862.6 470.31 794.45 430.97 947.79 165.38 1011.66 54.75 1079.81 94.09"/>
  <polygon class="cls-2" points="787.73 521.1 794.81 434.02 859.61 471.43 787.73 521.1"/>
</svg>